Coordinates
version=1
nRows=14
nColumns=40
inDegrees=yes

Units are S.I. units (second, meters, Newtons, ...)
Angles are in degrees.

endheader
time	pelvis_tilt	pelvis_list	pelvis_rotation	pelvis_tx	pelvis_ty	pelvis_tz	hip_flexion_r	hip_adduction_r	hip_rotation_r	knee_angle_r	knee_angle_r_beta	ankle_angle_r	subtalar_angle_r	mtp_angle_r	hip_flexion_l	hip_adduction_l	hip_rotation_l	knee_angle_l	knee_angle_l_beta	ankle_angle_l	subtalar_angle_l	mtp_angle_l	lumbar_extension	lumbar_bending	lumbar_rotation	arm_flex_r	arm_add_r	arm_rot_r	elbow_flex_r	pro_sup_r	wrist_flex_r	wrist_dev_r	arm_flex_l	arm_add_l	arm_rot_l	elbow_flex_l	pro_sup_l	wrist_flex_l	wrist_dev_l
     54.22828571	     -2.89806489	     -3.90483843	     -6.33359947	      0.98318802	      0.92861968	      0.40912687	     25.45154613	     -1.90842059	     -4.76891648	     26.33215767	     26.33215767	      6.22789099	     -2.31952306	     -0.19015637	      7.31869469	     -2.26077454	     -6.73194820	     21.61508978	     21.61508978	     19.00802217	    -13.41886740	      3.11863802	     -9.70727393	      7.08199024	      2.68731883	    -16.15336502	    -13.34051379	    -14.25838742	     25.14866623	     46.93864390	      0.00000000	      0.00000000	     32.28955695	    -17.35567744	     -3.83444389	     67.79658232	     47.29247395	      0.00000000	      0.00000000
     54.24657143	     -3.05207019	     -3.73042595	     -6.81862549	      0.98365561	      0.92793627	      0.41192229	     24.75144265	     -1.92268970	     -5.50195449	     23.47017668	     23.47017668	      6.42755923	      1.39929290	      0.60020845	      6.70309168	     -2.23946906	     -7.34344364	     21.04414038	     21.04414038	     18.91505101	    -13.16256991	      2.11069102	     -9.66617750	      6.85303297	      2.52668045	    -17.00923913	    -13.19388052	    -14.47792701	     26.41624660	     46.87115167	      0.00000000	      0.00000000	     31.98539700	    -17.56125105	     -5.62659304	     70.62594829	     47.47925933	      0.00000000	      0.00000000
     54.26485714	     -3.23086016	     -3.71372546	     -7.24886550	      0.98416096	      0.92716515	      0.41509882	     24.09221172	     -1.57236349	     -5.66018845	     21.09998165	     21.09998165	      6.20459950	      3.37428318	      1.15108054	      6.20986995	     -2.38831797	     -7.71190494	     20.70698250	     20.70698250	     19.12283937	    -13.10088132	      1.90812799	     -9.51958149	      6.80572861	      2.76879849	    -17.42702674	    -13.01137969	    -14.43544996	     26.37739552	     46.86059755	      0.00000000	      0.00000000	     32.38594651	    -17.65014337	     -6.03841982	     71.49188653	     47.52856518	      0.00000000	      0.00000000
     54.28314286	     -3.33642898	     -3.62132758	     -7.69113683	      0.98486284	      0.92626149	      0.41838552	     23.67978160	     -1.44584887	     -6.20280421	     19.79392908	     19.79392908	      6.13230023	      5.62129118	      1.44976501	      5.65123536	     -2.47965835	     -8.24072133	     20.39821759	     20.39821759	     19.20605579	    -12.93056788	      1.13480566	     -9.49439968	      6.67785840	      2.54420638	    -17.49008382	    -12.96196088	    -14.18574774	     26.78332796	     46.79602606	      0.00000000	      0.00000000	     31.94759986	    -17.76559696	     -7.90395822	     73.84681953	     47.71126844	      0.00000000	      0.00000000
     54.30142857	     -3.48113678	     -3.59792413	     -8.08332804	      0.98565313	      0.92537375	      0.42195346	     23.36782756	     -1.15014532	     -6.35427489	     18.98895524	     18.98895524	      5.90127517	      6.66494507	      1.43231994	      5.18362061	     -2.64536141	     -8.58487692	     20.21969146	     20.21969146	     19.46760992	    -12.86908186	      1.00967946	     -9.35386112	      6.62214851	      2.87071697	    -17.54462528	    -12.78005515	    -14.06851020	     26.68813860	     46.78564391	      0.00000000	      0.00000000	     32.19852043	    -17.68515111	     -8.25904707	     74.55961658	     47.75211447	      0.00000000	      0.00000000
     54.31971429	     -3.58058081	     -3.56909605	     -8.45067470	      0.98662015	      0.92454691	      0.42565979	     23.16814187	     -0.90657785	     -6.55114202	     18.82188167	     18.82188167	      5.65021509	      7.39320217	      0.75385394	      4.65693903	     -2.83207690	     -9.06059253	     20.04646567	     20.04646567	     19.75219897	    -12.60229461	      0.84060381	     -9.29816180	      6.58198518	      3.11889375	    -17.38601703	    -12.63868310	    -13.90843299	     26.63299063	     46.76963967	      0.00000000	      0.00000000	     32.13444159	    -17.48293294	     -9.14525525	     75.74238643	     47.83604332	      0.00000000	      0.00000000
     54.33800000	     -3.75311569	     -3.49358136	     -8.63172604	      0.98770908	      0.92375076	      0.42937278	     23.05127273	     -0.70418733	     -6.58363658	     18.92361631	     18.92361631	      5.60074853	      7.39742313	      0.72608753	      4.33619411	     -2.94899170	     -9.09307636	     20.06442473	     20.06442473	     19.92400650	    -12.68481075	      0.79711687	     -8.99573066	      6.51314777	      3.18150822	    -17.28675647	    -12.59755018	    -13.89826030	     26.66927445	     46.76784851	      0.00000000	      0.00000000	     32.18027784	    -17.50810615	     -9.18758670	     75.79833676	     47.84028550	      0.00000000	      0.00000000
     54.35628571	     -3.83372696	     -3.52250201	     -8.97166881	      0.98895610	      0.92308373	      0.43366253	     22.93571969	     -0.26624584	     -6.08667345	     19.30842051	     19.30842051	      4.49727414	      6.45457617	     -3.09675392	      3.72681649	     -3.25274663	     -9.69942122	     19.85302686	     19.85302686	     20.33539688	    -12.16515838	      0.97656610	     -8.99260790	      6.48539440	      2.52859688	    -15.94915546	    -12.70229353	    -12.82593362	     25.92647212	     46.69916646	      0.00000000	      0.00000000	     30.91268730	    -17.48326294	    -11.99848235	     78.42894122	     48.07472806	      0.00000000	      0.00000000
     54.37457143	     -3.90994689	     -3.48531798	     -9.14793815	      0.99033178	      0.92267245	      0.43783604	     22.90879957	      0.00787138	     -5.76670359	     20.08110235	     20.08110235	      4.68520120	      5.76393766	     -3.37897119	      3.14443157	     -3.43647397	     -9.96623450	     19.62871543	     19.62871543	     20.48363438	    -11.94481823	      0.99115217	     -8.87136516	      6.44530947	      2.72639638	    -15.67474698	    -12.65904481	    -12.74374657	     26.00959753	     46.68910963	      0.00000000	      0.00000000	     30.76254838	    -17.30469001	    -12.24673706	     78.62270984	     48.09400946	      0.00000000	      0.00000000
     54.39285714	     -4.08172469	     -3.53891104	     -9.22868315	      0.99168226	      0.92241894	      0.44206167	     22.77837786	      0.34200779	     -5.71102788	     20.55238794	     20.55238794	      4.88778472	      5.45178018	     -3.54791599	      2.71561430	     -3.74269285	    -10.09267655	     19.48323018	     19.48323018	     20.53863052	    -11.90153179	      1.04254467	     -8.64099366	      6.50912996	      2.86151496	    -15.30540546	    -12.58615347	    -12.71011138	     26.14321979	     46.68325315	      0.00000000	      0.00000000	     30.55890635	    -17.09941743	    -12.29423586	     78.66278189	     48.09647373	      0.00000000	      0.00000000
     54.41114286	     -4.09049282	     -3.34699670	     -9.31947077	      0.99315675	      0.92238163	      0.44644769	     22.82013326	      0.55151716	     -4.78229280	     21.59365456	     21.59365456	      5.21622963	      3.75974341	     -3.72342371	      1.97905881	     -3.80098739	    -10.58949183	     19.05825579	     19.05825579	     20.62506715	    -11.12501653	      1.11174367	     -8.59718481	      6.25959775	      2.87069177	    -14.92532076	    -12.62824546	    -12.64463527	     26.28827160	     46.67252383	      0.00000000	      0.00000000	     30.10540927	    -16.83487061	    -13.04302418	     79.09810886	     48.15098580	      0.00000000	      0.00000000
     54.42942857	     -4.22711178	     -3.38163355	     -9.24313861	      0.99451362	      0.92251525	      0.45063286	     22.61631615	      0.83873509	     -4.70147911	     22.00437603	     22.00437603	      5.53913186	      3.31617294	     -3.83632482	      1.56005647	     -4.11329886	    -10.66423011	     18.95025531	     18.95025531	     20.56834571	    -10.89808822	      1.18996398	     -8.41864499	      6.35820546	      2.88177230	    -14.55835507	    -12.69302505	    -12.62629459	     26.42873427	     46.66775848	      0.00000000	      0.00000000	     29.64601341	    -16.49646924	    -13.13414173	     79.11008268	     48.15399592	      0.00000000	      0.00000000
     54.44771429	     -4.28978614	     -3.24474042	     -9.18577087	      0.99580131	      0.92284079	      0.45502789	     22.44660792	      1.10902418	     -3.91418293	     22.52579289	     22.52579289	      5.99017661	      1.78182104	     -3.53934496	      1.00756212	     -4.32164744	    -11.28303706	     18.70761487	     18.70761487	     20.63742288	     -9.80288757	      1.25433855	     -8.37806589	      6.16925096	      2.57925412	    -14.05440680	    -12.84348428	    -12.55373089	     26.67092120	     46.65259699	      0.00000000	      0.00000000	     28.87012574	    -16.33267149	    -14.15752958	     79.55196299	     48.22433277	      0.00000000	      0.00000000
     54.46600000	     -4.43720684	     -3.18101329	     -8.99652816	      0.99698281	      0.92324180	      0.45912794	     22.15067147	      1.25609270	     -3.95380549	     22.65534583	     22.65534583	      6.40891515	      1.61527221	     -3.61216303	      0.76719914	     -4.56744652	    -11.28722657	     18.80146076	     18.80146076	     20.45023668	     -9.62590533	      1.32822249	     -8.20001814	      6.16104397	      2.57761451	    -13.80050682	    -12.98772663	    -12.54838333	     26.76865494	     46.65009912	      0.00000000	      0.00000000	     28.41133381	    -16.02124336	    -14.16415105	     79.50227312	     48.22056631	      0.00000000	      0.00000000
